<svg width="20" height="20" viewBox="0 0 20 20" fill="none" xmlns="http://www.w3.org/2000/svg">
<path d="M15.8327 4.66659C16.1421 4.66659 16.4388 4.7895 16.6576 5.00829C16.8764 5.22709 16.9993 5.52383 16.9993 5.83325V13.3333C16.9993 14.3057 16.613 15.2383 15.9254 15.926C15.2378 16.6136 14.3051 16.9999 13.3327 16.9999H2.99935V5.83325C2.99935 5.52383 3.12227 5.22709 3.34106 5.00829C3.55985 4.7895 3.8566 4.66659 4.16602 4.66659H15.8327ZM15.8327 3.33325H4.16602C3.50297 3.33325 2.86709 3.59664 2.39825 4.06549C1.92941 4.53433 1.66602 5.17021 1.66602 5.83325V18.3333H13.3327C14.6588 18.3333 15.9305 17.8065 16.8682 16.8688C17.8059 15.9311 18.3327 14.6593 18.3327 13.3333V5.83325C18.3327 5.17021 18.0693 4.53433 17.6005 4.06549C17.1316 3.59664 16.4957 3.33325 15.8327 3.33325Z" fill="#AAAAAA"/>
<path fill-rule="evenodd" clip-rule="evenodd" d="M18.3327 9.00008H1.66602V7.66675H18.3327V9.00008Z" fill="#AAAAAA"/>
<path d="M7.33333 4.16675H6V1.66675H6.66667C6.84348 1.66675 7.01305 1.73699 7.13807 1.86201C7.2631 1.98703 7.33333 2.1566 7.33333 2.33341V4.16675Z" fill="#AAAAAA"/>
<path d="M13.9993 4.16675H12.666V1.66675H13.3327C13.5095 1.66675 13.6791 1.73699 13.8041 1.86201C13.9291 1.98703 13.9993 2.1566 13.9993 2.33341V4.16675Z" fill="#AAAAAA"/>
<path d="M9.33333 14.8333H5V14.1667C5 13.9899 5.07024 13.8203 5.19526 13.6953C5.32029 13.5702 5.48986 13.5 5.66667 13.5H10V14.1667C10 14.3435 9.92976 14.513 9.80474 14.6381C9.67971 14.7631 9.51014 14.8333 9.33333 14.8333Z" fill="#AAAAAA"/>
</svg>
