<svg width="24" height="24" viewBox="0 0 24 24" fill="none" xmlns="http://www.w3.org/2000/svg">
<path d="M12 9.99966C12.5736 9.99966 13.1343 10.1697 13.6112 10.4884C14.0881 10.8071 14.4598 11.26 14.6793 11.7899C14.8987 12.3198 14.9562 12.9029 14.8443 13.4654C14.7324 14.028 14.4562 14.5447 14.0506 14.9503C13.645 15.3558 13.1283 15.632 12.5658 15.7439C12.0032 15.8558 11.4201 15.7984 10.8902 15.5789C10.3603 15.3594 9.9074 14.9877 9.58874 14.5108C9.27008 14.0339 9.1 13.4732 9.1 12.8997C9.1 12.1305 9.40554 11.3929 9.94939 10.849C10.4932 10.3052 11.2309 9.99966 12 9.99966ZM12 8.39966C11.11 8.39966 10.24 8.66358 9.49994 9.15805C8.75991 9.65251 8.18314 10.3553 7.84254 11.1776C7.50195 11.9999 7.41283 12.9047 7.58647 13.7776C7.7601 14.6505 8.18869 15.4523 8.81802 16.0816C9.44736 16.711 10.2492 17.1396 11.1221 17.3132C11.995 17.4868 12.8998 17.3977 13.7221 17.0571C14.5443 16.7165 15.2471 16.1397 15.7416 15.3997C16.2361 14.6597 16.5 13.7897 16.5 12.8997C16.5026 12.3075 16.3881 11.7207 16.163 11.173C15.9379 10.6252 15.6067 10.1275 15.1885 9.70826C14.7702 9.28908 14.2732 8.95676 13.726 8.73046C13.1787 8.50416 12.5922 8.38833 12 8.38966V8.39966Z" fill="#AAAAAA"/>
<path d="M22.1601 7.00004H17.1601L15.7801 4.33004C15.6956 4.16699 15.5679 4.03035 15.4109 3.9351C15.2539 3.83985 15.0737 3.78966 14.8901 3.79004H9.11008C8.92645 3.78966 8.74626 3.83985 8.58927 3.9351C8.43228 4.03035 8.30455 4.16699 8.22008 4.33004L6.83008 7.00004H1.83008V20.2H16.1601C17.7514 20.2 19.2775 19.5679 20.4027 18.4427C21.5279 17.3175 22.1601 15.7913 22.1601 14.2V7.00004Z" stroke="#AAAAAA" stroke-width="1.6" stroke-miterlimit="10"/>
<path d="M5.6 13.5H4.8C4.58783 13.5 4.38434 13.4157 4.23431 13.2657C4.08429 13.1157 4 12.9122 4 12.7V9.5H4.8C5.01217 9.5 5.21566 9.58429 5.36569 9.73431C5.51571 9.88434 5.6 10.0878 5.6 10.3V13.5Z" fill="#AAAAAA"/>
</svg>
