<svg width="24" height="24" viewBox="0 0 24 24" fill="none" xmlns="http://www.w3.org/2000/svg">
<path d="M12 9.9999C12.5736 9.9999 13.1343 10.17 13.6112 10.4886C14.0881 10.8073 14.4598 11.2602 14.6793 11.7901C14.8987 12.32 14.9562 12.9031 14.8443 13.4657C14.7324 14.0282 14.4562 14.5449 14.0506 14.9505C13.645 15.3561 13.1283 15.6323 12.5658 15.7442C12.0032 15.8561 11.4201 15.7986 10.8902 15.5792C10.3603 15.3597 9.9074 14.988 9.58874 14.5111C9.27008 14.0342 9.1 13.4735 9.1 12.8999C9.1 12.1308 9.40554 11.3931 9.94939 10.8493C10.4932 10.3054 11.2309 9.9999 12 9.9999ZM12 8.3999C11.11 8.3999 10.24 8.66382 9.49994 9.15829C8.75991 9.65276 8.18314 10.3556 7.84254 11.1778C7.50195 12.0001 7.41283 12.9049 7.58647 13.7778C7.7601 14.6507 8.18869 15.4525 8.81802 16.0819C9.44736 16.7112 10.2492 17.1398 11.1221 17.3134C11.995 17.4871 12.8998 17.398 13.7221 17.0574C14.5443 16.7168 15.2471 16.14 15.7416 15.4C16.2361 14.6599 16.5 13.7899 16.5 12.8999C16.5026 12.3077 16.3881 11.7209 16.163 11.1732C15.9379 10.6255 15.6067 10.1277 15.1885 9.70851C14.7702 9.28932 14.2732 8.95701 13.726 8.73071C13.1787 8.5044 12.5922 8.38858 12 8.3899V8.3999Z" fill="#313131"/>
<path d="M22.1601 7.00004H17.1601L15.7801 4.33004C15.6956 4.16699 15.5679 4.03035 15.4109 3.9351C15.2539 3.83985 15.0737 3.78966 14.8901 3.79004H9.11008C8.92645 3.78966 8.74626 3.83985 8.58927 3.9351C8.43228 4.03035 8.30455 4.16699 8.22008 4.33004L6.83008 7.00004H1.83008V20.2H16.1601C17.7514 20.2 19.2775 19.5679 20.4027 18.4427C21.5279 17.3175 22.1601 15.7913 22.1601 14.2V7.00004Z" stroke="#313131" stroke-width="1.6" stroke-miterlimit="10"/>
<path d="M5.6 13.5H4.8C4.58783 13.5 4.38434 13.4157 4.23431 13.2657C4.08429 13.1157 4 12.9122 4 12.7V9.5H4.8C5.01217 9.5 5.21566 9.58429 5.36569 9.73431C5.51571 9.88434 5.6 10.0878 5.6 10.3V13.5Z" fill="#313131"/>
</svg>
