<svg width="38" height="38" viewBox="0 0 38 38" fill="none" xmlns="http://www.w3.org/2000/svg">
<circle opacity="0.6" cx="19" cy="19" r="19" fill="#313131"/>
<path d="M23.6413 21.9748C23.296 21.9802 22.9556 22.057 22.6415 22.2004C22.3274 22.3438 22.0464 22.5507 21.8163 22.8082L15.6079 19.5332C15.6443 19.3576 15.6638 19.1791 15.6663 18.9998C15.6642 18.8233 15.6447 18.6475 15.6079 18.4748L21.8246 15.2248C22.2243 15.6476 22.7589 15.9177 23.3364 15.9887C23.9138 16.0596 24.4979 15.927 24.9881 15.6135C25.4782 15.3001 25.8437 14.8255 26.0216 14.2716C26.1994 13.7177 26.1785 13.119 25.9624 12.5789C25.7464 12.0387 25.3487 11.5908 24.8378 11.3123C24.327 11.0338 23.7351 10.9422 23.164 11.0533C22.5929 11.1644 22.0784 11.4711 21.7092 11.9208C21.34 12.3704 21.1391 12.9347 21.1413 13.5165C21.1437 13.6957 21.1633 13.8743 21.1996 14.0498L14.9913 17.3332C14.6491 16.9659 14.2043 16.7101 13.7147 16.5992C13.2251 16.4882 12.7135 16.5272 12.2464 16.7111C11.7793 16.8949 11.3784 17.2152 11.0958 17.6301C10.8132 18.045 10.6621 18.5353 10.6621 19.0373C10.6621 19.5393 10.8132 20.0297 11.0958 20.4446C11.3784 20.8595 11.7793 21.1797 12.2464 21.3636C12.7135 21.5474 13.2251 21.5864 13.7147 21.4755C14.2043 21.3645 14.6491 21.1088 14.9913 20.7415L21.1996 23.9832C21.1587 24.1551 21.1391 24.3314 21.1413 24.5082C21.1413 25.0026 21.2879 25.486 21.5626 25.8971C21.8373 26.3082 22.2277 26.6286 22.6846 26.8179C23.1414 27.0071 23.644 27.0566 24.129 26.9601C24.6139 26.8637 25.0594 26.6256 25.409 26.2759C25.7587 25.9263 25.9968 25.4808 26.0932 24.9959C26.1897 24.5109 26.1402 24.0083 25.951 23.5514C25.7617 23.0946 25.4413 22.7042 25.0302 22.4295C24.6191 22.1548 24.1357 22.0082 23.6413 22.0082V21.9748ZM23.6413 12.3332C23.872 12.3332 24.0976 12.4016 24.2894 12.5298C24.4813 12.658 24.6308 12.8402 24.7191 13.0534C24.8074 13.2665 24.8305 13.5011 24.7855 13.7274C24.7405 13.9537 24.6294 14.1616 24.4662 14.3248C24.3031 14.4879 24.0952 14.5991 23.8689 14.6441C23.6426 14.6891 23.408 14.666 23.1948 14.5777C22.9816 14.4894 22.7994 14.3398 22.6712 14.148C22.543 13.9561 22.4746 13.7306 22.4746 13.4998C22.4746 13.1904 22.5975 12.8937 22.8163 12.6749C23.0351 12.4561 23.3318 12.3332 23.6413 12.3332ZM13.1663 20.1748C12.9359 20.1748 12.7106 20.1066 12.519 19.9788C12.3273 19.8509 12.1778 19.6692 12.0892 19.4565C12.0007 19.2438 11.9771 19.0097 12.0214 18.7836C12.0658 18.5575 12.1761 18.3496 12.3384 18.1861C12.5007 18.0226 12.7078 17.9109 12.9336 17.8649C13.1594 17.819 13.3937 17.8409 13.607 17.9279C13.8203 18.0149 14.0031 18.1632 14.1323 18.3539C14.2615 18.5447 14.3313 18.7694 14.3329 18.9998C14.334 19.1537 14.3047 19.3063 14.2465 19.4488C14.1884 19.5914 14.1026 19.721 13.9942 19.8302C13.8857 19.9394 13.7568 20.0261 13.6147 20.0852C13.4726 20.1444 13.3202 20.1748 13.1663 20.1748ZM23.6413 25.6665C23.4105 25.6665 23.185 25.5981 22.9931 25.4699C22.8012 25.3417 22.6517 25.1595 22.5634 24.9463C22.4751 24.7331 22.452 24.4985 22.497 24.2722C22.542 24.0459 22.6531 23.838 22.8163 23.6749C22.9795 23.5117 23.1873 23.4006 23.4137 23.3556C23.64 23.3106 23.8745 23.3337 24.0877 23.422C24.3009 23.5103 24.4831 23.6598 24.6113 23.8517C24.7395 24.0435 24.8079 24.2691 24.8079 24.4998C24.8079 24.8092 24.685 25.106 24.4662 25.3248C24.2474 25.5436 23.9507 25.6665 23.6413 25.6665Z" fill="white"/>
</svg>
