<svg width="24" height="24" viewBox="0 0 24 24" fill="none" xmlns="http://www.w3.org/2000/svg">
<path d="M2.80078 20.84V9.41002L10.6908 3.59002C11.0704 3.31062 11.5294 3.15991 12.0008 3.15991C12.4721 3.15991 12.9312 3.31062 13.3108 3.59002L21.2008 9.41002V15.64C21.198 16.9663 20.6896 18.2416 19.7791 19.2059C18.8687 20.1703 17.6247 20.7511 16.3008 20.83V15.83C16.3008 14.6896 15.8477 13.5959 15.0413 12.7895C14.2349 11.9831 13.1412 11.53 12.0008 11.53C10.8603 11.53 9.76663 11.9831 8.96022 12.7895C8.15382 13.5959 7.70078 14.6896 7.70078 15.83V20.83L2.80078 20.84Z" fill="#313131"/>
<path d="M12 4.00011C12.2997 4.00083 12.5911 4.09911 12.83 4.28011L20.4 9.81011V15.6401C20.3982 16.6151 20.0734 17.562 19.4763 18.3328C18.8793 19.1035 18.0436 19.6547 17.1 19.9001V15.8301C17.1 14.4775 16.5627 13.1803 15.6062 12.2239C14.6498 11.2674 13.3526 10.7301 12 10.7301C10.6474 10.7301 9.35019 11.2674 8.39375 12.2239C7.43732 13.1803 6.9 14.4775 6.9 15.8301V20.0001H3.6V9.81011L11.17 4.24011C11.4138 4.07333 11.7048 3.9892 12 4.00011ZM12 2.40011C11.3577 2.40441 10.7338 2.61472 10.22 3.00011L2 9.00011V21.6401H8.5V15.8301C8.5 15.3705 8.59053 14.9154 8.76642 14.4907C8.94231 14.0661 9.20012 13.6802 9.52513 13.3552C9.85013 13.0302 10.236 12.7724 10.6606 12.5965C11.0852 12.4206 11.5404 12.3301 12 12.3301C12.4596 12.3301 12.9148 12.4206 13.3394 12.5965C13.764 12.7724 14.1499 13.0302 14.4749 13.3552C14.7999 13.6802 15.0577 14.0661 15.2336 14.4907C15.4095 14.9154 15.5 15.3705 15.5 15.8301V21.6401H16C17.5913 21.6401 19.1174 21.008 20.2426 19.8827C21.3679 18.7575 22 17.2314 22 15.6401V9.00011L13.78 3.00011C13.2712 2.60041 12.6468 2.37591 12 2.36011V2.40011Z" fill="#313131"/>
</svg>
