<svg width="24" height="24" viewBox="0 0 24 24" fill="none" xmlns="http://www.w3.org/2000/svg">
<path d="M12 4.00011C12.2997 4.00083 12.5911 4.09911 12.83 4.28011L20.4 9.81011V15.6401C20.3869 16.7993 19.9178 17.9067 19.0944 18.7227C18.2709 19.5386 17.1593 19.9976 16 20.0001H3.6V9.81011L11.17 4.24011C11.4138 4.07333 11.7048 3.9892 12 4.00011ZM12 2.40011C11.3577 2.40441 10.7338 2.61472 10.22 3.00011L2 9.00011V21.6401H16C17.5913 21.6401 19.1174 21.008 20.2426 19.8827C21.3679 18.7575 22 17.2314 22 15.6401V9.00011L13.78 3.00011C13.2712 2.60041 12.6468 2.37591 12 2.36011V2.40011Z" fill="#898989"/>
<path d="M9 21.6401V15.8301C9 15.0344 9.31607 14.2714 9.87868 13.7088C10.4413 13.1461 11.2044 12.8301 12 12.8301V12.8301C12.7956 12.8301 13.5587 13.1461 14.1213 13.7088C14.6839 14.2714 15 15.0344 15 15.8301V21.5201" stroke="#898989" stroke-width="1.6" stroke-miterlimit="10"/>
</svg>
