<svg width="100" height="80" viewBox="0 0 100 80" fill="none" xmlns="http://www.w3.org/2000/svg">
<g clip-path="url(#clip0_2528_12540)">
<path d="M8.84259 0C3.95833 0 0 3.75926 0 8.39815V50C0 66.1065 13.0602 79.1667 29.1667 79.1667H66.6667V0H8.84259Z" fill="white"/>
<path d="M91.1561 0H70.832V45.8333H79.7718C90.9431 45.8333 99.9987 35.8704 99.9987 23.5833V9.72685C99.9987 4.35648 96.0404 0 91.1561 0ZM84.6283 27.5972C81.6098 27.5972 79.1654 25.1528 79.1654 22.1343C79.1654 19.1157 81.6098 16.6713 84.6283 16.6713C87.6468 16.6713 90.0913 19.1157 90.0913 22.1343C90.0913 25.1528 87.6468 27.5972 84.6283 27.5972Z" fill="white"/>
</g>
<defs>
<clipPath id="clip0_2528_12540">
<rect width="100" height="79.1667" fill="white"/>
</clipPath>
</defs>
</svg>
