<svg width="20" height="20" viewBox="0 0 20 20" fill="none" xmlns="http://www.w3.org/2000/svg">
<path d="M9.90816 18.9999C9.65667 19.0053 9.40789 18.947 9.18497 18.8304C8.96205 18.7139 8.77223 18.5428 8.63316 18.3332L4.34149 11.3165C3.73269 10.3203 3.38794 9.18537 3.33982 8.01886C3.2917 6.85235 3.5418 5.69283 4.06649 4.64988C4.54482 3.65258 5.27251 2.79566 6.17912 2.16205C7.08573 1.52845 8.14055 1.13962 9.24149 1.03321C9.68496 0.991534 10.1314 0.991534 10.5748 1.03321C11.67 1.13692 12.7203 1.52012 13.625 2.14609C14.5296 2.77206 15.2584 3.61984 15.7415 4.60821C16.2737 5.65641 16.5279 6.82369 16.4798 7.99828C16.4316 9.17287 16.0827 10.3154 15.4665 11.3165L11.1832 18.3332C11.0441 18.5428 10.8543 18.7139 10.6314 18.8304C10.4084 18.947 10.1597 19.0053 9.90816 18.9999ZM9.90816 2.33321C9.72483 2.33321 9.54149 2.33321 9.36649 2.33321C8.49127 2.41157 7.65172 2.71733 6.93108 3.22017C6.21045 3.723 5.63375 4.40546 5.25816 5.19988C4.82701 6.04597 4.6212 6.98891 4.66062 7.9377C4.70003 8.8865 4.98332 9.80912 5.48316 10.6165L9.76649 17.5915C9.77673 17.621 9.79587 17.6465 9.82126 17.6645C9.84664 17.6825 9.87701 17.6922 9.90816 17.6922C9.93931 17.6922 9.96968 17.6825 9.99507 17.6645C10.0205 17.6465 10.0396 17.621 10.0498 17.5915L14.3332 10.6165C14.833 9.80912 15.1163 8.8865 15.1557 7.9377C15.1951 6.98891 14.9893 6.04597 14.5582 5.19988C14.1792 4.41014 13.6011 3.73275 12.8807 3.23446C12.1603 2.73617 11.3225 2.43416 10.4498 2.35821C10.2748 2.34154 10.0915 2.33321 9.90816 2.33321Z" fill="#AAAAAA"/>
<path d="M9.90714 11.1083C9.19949 11.1083 8.50769 10.8987 7.91897 10.5061C7.33025 10.1134 6.87096 9.55525 6.59903 8.90194C6.3271 8.24862 6.25469 7.52942 6.39094 6.83501C6.52719 6.14061 6.866 5.50209 7.36464 4.99997C7.86328 4.49785 8.49942 4.15461 9.19287 4.01354C9.88631 3.87247 10.606 3.93987 11.2612 4.20725C11.9164 4.47464 12.4777 4.93003 12.8745 5.51601C13.2712 6.10199 13.4855 6.79231 13.4905 7.49994C13.4938 7.97261 13.4035 8.44127 13.2249 8.8789C13.0463 9.31654 12.7829 9.71452 12.4498 10.0499C12.1167 10.3853 11.7206 10.6515 11.2842 10.8331C10.8478 11.0148 10.3798 11.1083 9.90714 11.1083ZM9.90714 5.27494C9.46107 5.27497 9.02508 5.40759 8.65455 5.65594C8.28402 5.9043 7.99567 6.25719 7.82613 6.66978C7.65659 7.08237 7.61352 7.53605 7.70238 7.97317C7.79124 8.4103 8.00803 8.81115 8.3252 9.1248C8.64238 9.43845 9.04562 9.65074 9.48371 9.73472C9.9218 9.81869 10.375 9.77055 10.7856 9.59641C11.1963 9.42227 11.546 9.13 11.7902 8.75672C12.0344 8.38343 12.1621 7.94598 12.1571 7.49994C12.1484 6.90823 11.9078 6.34359 11.487 5.92748C11.0662 5.51138 10.4989 5.27706 9.90714 5.27494Z" fill="#AAAAAA"/>
</svg>
