<svg width="24" height="24" viewBox="0 0 24 24" fill="none" xmlns="http://www.w3.org/2000/svg">
<path d="M12 3.60001C12.5736 3.60001 13.1343 3.77009 13.6112 4.08875C14.0881 4.40741 14.4598 4.86032 14.6793 5.39023C14.8987 5.92014 14.9562 6.50323 14.8443 7.06577C14.7324 7.62832 14.4562 8.14505 14.0506 8.55062C13.645 8.95619 13.1283 9.23239 12.5658 9.34429C12.0032 9.45619 11.4201 9.39876 10.8902 9.17926C10.3603 8.95977 9.9074 8.58807 9.58874 8.11116C9.27008 7.63426 9.1 7.07358 9.1 6.50001C9.1 5.73088 9.40554 4.99326 9.94939 4.4494C10.4932 3.90555 11.2309 3.60001 12 3.60001ZM12 2.00001C11.11 2.00001 10.24 2.26393 9.49994 2.7584C8.75991 3.25286 8.18314 3.95567 7.84254 4.77794C7.50195 5.6002 7.41283 6.505 7.58647 7.37792C7.7601 8.25083 8.18869 9.05265 8.81802 9.68199C9.44736 10.3113 10.2492 10.7399 11.1221 10.9135C11.995 11.0872 12.8998 10.9981 13.7221 10.6575C14.5443 10.3169 15.2471 9.7401 15.7416 9.00008C16.2361 8.26006 16.5 7.39003 16.5 6.50001C16.5013 5.90869 16.3858 5.32294 16.1601 4.77638C15.9345 4.22982 15.603 3.73322 15.1849 3.31509C14.7668 2.89696 14.2702 2.56555 13.7236 2.33987C13.1771 2.11419 12.5913 1.99869 12 2.00001Z" fill="#AAAAAA"/>
<path d="M16 14.6C17.167 14.6 18.2861 15.0636 19.1113 15.8887C19.9364 16.7139 20.4 17.833 20.4 19C20.4 19.3713 20.2525 19.7274 19.99 19.99C19.7274 20.2525 19.3713 20.4 19 20.4H3.6V19C3.6 17.833 4.06357 16.7139 4.88873 15.8887C5.71389 15.0636 6.83305 14.6 8 14.6H16ZM16 13H8C6.4087 13 4.88258 13.6321 3.75736 14.7574C2.63214 15.8826 2 17.4087 2 19V22H19C19.7956 22 20.5587 21.6839 21.1213 21.1213C21.6839 20.5587 22 19.7956 22 19C22 17.4087 21.3679 15.8826 20.2426 14.7574C19.1174 13.6321 17.5913 13 16 13Z" fill="#AAAAAA"/>
</svg>
