<svg width="28" height="30" viewBox="0 0 28 30" fill="none" xmlns="http://www.w3.org/2000/svg">
<g filter="url(#filter0_d_2486_9245)">
<path d="M14 3.60001C14.5736 3.60001 15.1343 3.77009 15.6112 4.08875C16.0881 4.40741 16.4598 4.86032 16.6793 5.39023C16.8987 5.92014 16.9562 6.50323 16.8443 7.06577C16.7324 7.62832 16.4562 8.14505 16.0506 8.55062C15.645 8.95619 15.1283 9.23239 14.5658 9.34429C14.0032 9.45619 13.4201 9.39876 12.8902 9.17926C12.3603 8.95977 11.9074 8.58807 11.5887 8.11116C11.2701 7.63426 11.1 7.07358 11.1 6.50001C11.1 5.73088 11.4055 4.99326 11.9494 4.4494C12.4932 3.90555 13.2309 3.60001 14 3.60001ZM14 2.00001C13.11 2.00001 12.24 2.26393 11.4999 2.7584C10.7599 3.25286 10.1831 3.95567 9.84254 4.77794C9.50195 5.6002 9.41283 6.505 9.58647 7.37792C9.7601 8.25083 10.1887 9.05265 10.818 9.68199C11.4474 10.3113 12.2492 10.7399 13.1221 10.9135C13.995 11.0872 14.8998 10.9981 15.7221 10.6575C16.5443 10.3169 17.2471 9.7401 17.7416 9.00008C18.2361 8.26006 18.5 7.39003 18.5 6.50001C18.5013 5.90869 18.3858 5.32294 18.1601 4.77638C17.9345 4.22982 17.603 3.73322 17.1849 3.31509C16.7668 2.89696 16.2702 2.56555 15.7236 2.33987C15.1771 2.11419 14.5913 1.99869 14 2.00001Z" fill="#898989"/>
<path d="M18 14.6C19.167 14.6 20.2861 15.0636 21.1113 15.8887C21.9364 16.7139 22.4 17.833 22.4 19C22.4 19.3713 22.2525 19.7274 21.99 19.99C21.7274 20.2525 21.3713 20.4 21 20.4H5.6V19C5.6 17.833 6.06357 16.7139 6.88873 15.8887C7.71389 15.0636 8.83305 14.6 10 14.6H18ZM18 13H10C8.4087 13 6.88258 13.6321 5.75736 14.7574C4.63214 15.8826 4 17.4087 4 19V22H21C21.7956 22 22.5587 21.6839 23.1213 21.1213C23.6839 20.5587 24 19.7956 24 19C24 17.4087 23.3679 15.8826 22.2426 14.7574C21.1174 13.6321 19.5913 13 18 13Z" fill="#898989"/>
</g>
<defs>
<filter id="filter0_d_2486_9245" x="-2" y="0" width="32" height="32" filterUnits="userSpaceOnUse" color-interpolation-filters="sRGB">
<feFlood flood-opacity="0" result="BackgroundImageFix"/>
<feColorMatrix in="SourceAlpha" type="matrix" values="0 0 0 0 0 0 0 0 0 0 0 0 0 0 0 0 0 0 127 0" result="hardAlpha"/>
<feOffset dy="4"/>
<feGaussianBlur stdDeviation="2"/>
<feComposite in2="hardAlpha" operator="out"/>
<feColorMatrix type="matrix" values="0 0 0 0 0 0 0 0 0 0 0 0 0 0 0 0 0 0 0.25 0"/>
<feBlend mode="normal" in2="BackgroundImageFix" result="effect1_dropShadow_2486_9245"/>
<feBlend mode="normal" in="SourceGraphic" in2="effect1_dropShadow_2486_9245" result="shape"/>
</filter>
</defs>
</svg>
