<svg width="26" height="27" viewBox="0 0 26 27" fill="none" xmlns="http://www.w3.org/2000/svg">
<g filter="url(#filter0_d_2511_9868)">
<path d="M13 3.00009C13.478 3.00009 13.9452 3.14183 14.3426 3.40737C14.74 3.67292 15.0498 4.05035 15.2327 4.49194C15.4156 4.93353 15.4635 5.41944 15.3702 5.88823C15.277 6.35701 15.0468 6.78762 14.7088 7.1256C14.3709 7.46358 13.9403 7.69374 13.4715 7.78699C13.0027 7.88024 12.5168 7.83238 12.0752 7.64947C11.6336 7.46655 11.2562 7.1568 10.9906 6.75939C10.7251 6.36197 10.5833 5.89473 10.5833 5.41676C10.5833 4.77582 10.8379 4.16113 11.2912 3.70792C11.7444 3.2547 12.3591 3.00009 13 3.00009V3.00009ZM13 1.66676C12.2583 1.66676 11.5333 1.88669 10.9166 2.29875C10.2999 2.7108 9.81928 3.29647 9.53545 3.98169C9.25162 4.66692 9.17736 5.42092 9.32206 6.14835C9.46675 6.87577 9.8239 7.54396 10.3484 8.06841C10.8728 8.59285 11.541 8.95001 12.2684 9.0947C12.9958 9.2394 13.7498 9.16514 14.4351 8.88131C15.1203 8.59748 15.706 8.11683 16.118 7.50015C16.5301 6.88346 16.75 6.15844 16.75 5.41676C16.7511 4.92399 16.6549 4.43586 16.4668 3.9804C16.2787 3.52493 16.0025 3.1111 15.6541 2.76266C15.3057 2.41422 14.8918 2.13804 14.4364 1.94997C13.9809 1.76191 13.4928 1.66566 13 1.66676V1.66676Z" fill="#AAAAAA"/>
<path d="M16.3327 12.1666C17.3051 12.1666 18.2378 12.5529 18.9254 13.2405C19.613 13.9282 19.9993 14.8608 19.9993 15.8333C19.9993 16.1427 19.8764 16.4394 19.6576 16.6582C19.4388 16.877 19.1421 16.9999 18.8327 16.9999H5.99935V15.8333C5.99935 14.8608 6.38566 13.9282 7.07329 13.2405C7.76092 12.5529 8.69356 12.1666 9.66602 12.1666H16.3327ZM16.3327 10.8333H9.66602C8.33993 10.8333 7.06816 11.36 6.13048 12.2977C5.1928 13.2354 4.66602 14.5072 4.66602 15.8333V18.3333H18.8327C19.4957 18.3333 20.1316 18.0699 20.6005 17.601C21.0693 17.1322 21.3327 16.4963 21.3327 15.8333C21.3327 14.5072 20.8059 13.2354 19.8682 12.2977C18.9305 11.36 17.6588 10.8333 16.3327 10.8333Z" fill="#AAAAAA"/>
</g>
<defs>
<filter id="filter0_d_2511_9868" x="-1" y="0" width="28" height="28" filterUnits="userSpaceOnUse" color-interpolation-filters="sRGB">
<feFlood flood-opacity="0" result="BackgroundImageFix"/>
<feColorMatrix in="SourceAlpha" type="matrix" values="0 0 0 0 0 0 0 0 0 0 0 0 0 0 0 0 0 0 127 0" result="hardAlpha"/>
<feOffset dy="4"/>
<feGaussianBlur stdDeviation="2"/>
<feComposite in2="hardAlpha" operator="out"/>
<feColorMatrix type="matrix" values="0 0 0 0 0 0 0 0 0 0 0 0 0 0 0 0 0 0 0.25 0"/>
<feBlend mode="normal" in2="BackgroundImageFix" result="effect1_dropShadow_2511_9868"/>
<feBlend mode="normal" in="SourceGraphic" in2="effect1_dropShadow_2511_9868" result="shape"/>
</filter>
</defs>
</svg>
