<svg width="20" height="20" viewBox="0 0 20 20" fill="none" xmlns="http://www.w3.org/2000/svg">
<path d="M10 2.99985C10.478 2.99985 10.9452 3.14158 11.3426 3.40713C11.74 3.67268 12.0498 4.05011 12.2327 4.4917C12.4156 4.93328 12.4635 5.41919 12.3702 5.88798C12.277 6.35677 12.0468 6.78738 11.7088 7.12535C11.3709 7.46333 10.9403 7.6935 10.4715 7.78674C10.0027 7.87999 9.51677 7.83213 9.07518 7.64922C8.63359 7.46631 8.25616 7.15656 7.99062 6.75914C7.72507 6.36172 7.58334 5.89448 7.58334 5.41651C7.58334 4.77557 7.83795 4.16088 8.29116 3.70767C8.74437 3.25446 9.35906 2.99985 10 2.99985V2.99985ZM10 1.66651C9.25832 1.66651 8.5333 1.88645 7.91661 2.2985C7.29993 2.71056 6.81928 3.29623 6.53545 3.98145C6.25162 4.66667 6.17736 5.42067 6.32206 6.1481C6.46675 6.87553 6.8239 7.54372 7.34835 8.06816C7.8728 8.59261 8.54098 8.94976 9.26841 9.09446C9.99584 9.23915 10.7498 9.16489 11.4351 8.88106C12.1203 8.59723 12.706 8.11659 13.118 7.4999C13.5301 6.88322 13.75 6.15819 13.75 5.41651C13.7511 4.92375 13.6549 4.43562 13.4668 3.98015C13.2787 3.52468 13.0025 3.11085 12.6541 2.76241C12.3057 2.41397 11.8918 2.13779 11.4364 1.94973C10.9809 1.76166 10.4928 1.66541 10 1.66651V1.66651Z" fill="#AAAAAA"/>
<path d="M13.3327 12.1668C14.3051 12.1668 15.2378 12.5531 15.9254 13.2408C16.613 13.9284 16.9993 14.861 16.9993 15.8335C16.9993 16.1429 16.8764 16.4397 16.6576 16.6585C16.4388 16.8772 16.1421 17.0002 15.8327 17.0002H2.99935V15.8335C2.99935 14.861 3.38566 13.9284 4.07329 13.2408C4.76092 12.5531 5.69356 12.1668 6.66602 12.1668H13.3327ZM13.3327 10.8335H6.66602C5.33993 10.8335 4.06816 11.3603 3.13048 12.298C2.1928 13.2356 1.66602 14.5074 1.66602 15.8335V18.3335H15.8327C16.4957 18.3335 17.1316 18.0701 17.6005 17.6013C18.0693 17.1324 18.3327 16.4965 18.3327 15.8335C18.3327 14.5074 17.8059 13.2356 16.8682 12.298C15.9305 11.3603 14.6588 10.8335 13.3327 10.8335Z" fill="#AAAAAA"/>
</svg>
