<svg width="24" height="24" viewBox="0 0 24 24" fill="none" xmlns="http://www.w3.org/2000/svg">
<path d="M15 19.21C15 20.0056 14.6839 20.7687 14.1213 21.3313C13.5587 21.8939 12.7956 22.21 12 22.21C11.2044 22.21 10.4413 21.8939 9.87868 21.3313C9.31607 20.7687 9 20.0056 9 19.21" stroke="#626262" stroke-width="1.6" stroke-miterlimit="10"/>
<path d="M19.0003 14.64V8.78003C19.0003 6.92351 18.2628 5.14304 16.95 3.83028C15.6373 2.51753 13.8568 1.78003 12.0003 1.78003C10.1437 1.78003 8.36327 2.51753 7.05052 3.83028C5.73776 5.14304 5.00027 6.92351 5.00027 8.78003V14.64L3.72027 17.19C3.64317 17.343 3.60667 17.5132 3.61426 17.6844C3.62186 17.8555 3.6733 18.0219 3.76364 18.1674C3.85399 18.313 3.98021 18.4329 4.13021 18.5156C4.28021 18.5984 4.44895 18.6412 4.62027 18.64H19.3803C19.5516 18.6412 19.7203 18.5984 19.8703 18.5156C20.0203 18.4329 20.1465 18.313 20.2369 18.1674C20.3272 18.0219 20.3787 17.8555 20.3863 17.6844C20.3939 17.5132 20.3574 17.343 20.2803 17.19L19.0003 14.64Z" stroke="#626262" stroke-width="1.6" stroke-miterlimit="10"/>
</svg>
