<svg width="24" height="24" viewBox="0 0 24 24" fill="none" xmlns="http://www.w3.org/2000/svg">
<path d="M10 4.4C11.1076 4.4 12.1903 4.72843 13.1112 5.34377C14.0321 5.95911 14.7499 6.83371 15.1737 7.85697C15.5976 8.88024 15.7085 10.0062 15.4924 11.0925C15.2763 12.1788 14.743 13.1766 13.9598 13.9598C13.1766 14.743 12.1788 15.2763 11.0925 15.4924C10.0062 15.7085 8.88024 15.5976 7.85698 15.1737C6.83371 14.7499 5.95911 14.0321 5.34377 13.1112C4.72844 12.1903 4.4 11.1076 4.4 10C4.4 8.51479 4.99 7.09041 6.04021 6.0402C7.09041 4.99 8.51479 4.4 10 4.4ZM10 2C8.41775 2 6.87103 2.46919 5.55544 3.34824C4.23985 4.22729 3.21447 5.47672 2.60897 6.93853C2.00347 8.40034 1.84504 10.0089 2.15372 11.5607C2.4624 13.1126 3.22433 14.538 4.34315 15.6569C5.46197 16.7757 6.88743 17.5376 8.43928 17.8463C9.99113 18.155 11.5997 17.9965 13.0615 17.391C14.5233 16.7855 15.7727 15.7602 16.6518 14.4446C17.5308 13.129 18 11.5823 18 10C18 7.87827 17.1571 5.84344 15.6569 4.34315C14.1566 2.84285 12.1217 2 10 2Z" fill="#313131"/>
<path d="M20.0009 21.6499L13.7109 15.3599L15.4109 13.6599L22.5009 20.7999L21.6509 21.6499C21.4281 21.8609 21.1328 21.9785 20.8259 21.9785C20.519 21.9785 20.2238 21.8609 20.0009 21.6499Z" fill="#313131"/>
</svg>
