<svg width="24" height="24" viewBox="0 0 24 24" fill="none" xmlns="http://www.w3.org/2000/svg">
<path d="M10 3.6C11.2658 3.6 12.5032 3.97535 13.5557 4.67859C14.6081 5.38184 15.4284 6.38138 15.9128 7.55083C16.3972 8.72027 16.524 10.0071 16.277 11.2486C16.0301 12.4901 15.4205 13.6304 14.5255 14.5255C13.6304 15.4205 12.4901 16.0301 11.2486 16.277C10.0071 16.524 8.72028 16.3972 7.55083 15.9128C6.38138 15.4284 5.38184 14.6081 4.6786 13.5556C3.97536 12.5032 3.6 11.2658 3.6 10C3.60265 8.30343 4.27778 6.6771 5.47744 5.47744C6.6771 4.27778 8.30343 3.60264 10 3.6ZM10 2C8.41775 2 6.87103 2.46919 5.55544 3.34824C4.23985 4.22729 3.21447 5.47672 2.60897 6.93853C2.00347 8.40034 1.84504 10.0089 2.15372 11.5607C2.4624 13.1126 3.22433 14.538 4.34315 15.6569C5.46197 16.7757 6.88743 17.5376 8.43928 17.8463C9.99113 18.155 11.5997 17.9965 13.0615 17.391C14.5233 16.7855 15.7727 15.7602 16.6518 14.4446C17.5308 13.129 18 11.5823 18 10C18 7.87827 17.1571 5.84344 15.6569 4.34315C14.1566 2.84285 12.1217 2 10 2Z" fill="#898989"/>
<path d="M21.7506 20.6201L15.8606 14.7301C15.7084 14.5922 15.509 14.5181 15.3037 14.5232C15.0985 14.5282 14.903 14.6121 14.7578 14.7573C14.6125 14.9025 14.5287 15.098 14.5237 15.3033C14.5186 15.5086 14.5927 15.7079 14.7306 15.8601L20.6206 21.7501C20.6949 21.8259 20.7836 21.8862 20.8815 21.9274C20.9793 21.9686 21.0844 21.9899 21.1906 21.9901C21.2954 21.9903 21.3991 21.9691 21.4953 21.9279C21.5916 21.8866 21.6785 21.8261 21.7506 21.7501L22.3206 21.1901L21.7506 20.6201Z" fill="#898989"/>
</svg>
