<svg width="24" height="24" viewBox="0 0 24 24" fill="none" xmlns="http://www.w3.org/2000/svg">
<path d="M17.5691 15.5699C17.1548 15.5763 16.7463 15.6685 16.3694 15.8406C15.9925 16.0127 15.6553 16.261 15.3791 16.5699L7.92913 12.6399C7.97277 12.4293 7.99621 12.215 7.99913 11.9999C7.9967 11.7881 7.97326 11.5771 7.92913 11.3699L15.3891 7.46993C15.8688 7.97725 16.5103 8.3014 17.2032 8.38655C17.8962 8.47169 18.5971 8.31249 19.1853 7.93638C19.7735 7.56027 20.2121 6.99079 20.4255 6.32606C20.6389 5.66134 20.6138 4.94298 20.3545 4.29477C20.0953 3.64655 19.618 3.10906 19.005 2.7749C18.392 2.44074 17.6817 2.33083 16.9964 2.46412C16.3111 2.5974 15.6937 2.96552 15.2506 3.50506C14.8076 4.04461 14.5666 4.72179 14.5691 5.41993C14.5721 5.635 14.5955 5.8493 14.6391 6.05993L7.18913 9.99993C6.77851 9.55919 6.24471 9.25228 5.65723 9.11913C5.06975 8.98599 4.45579 9.03278 3.89527 9.25343C3.33475 9.47408 2.85364 9.85835 2.51456 10.3562C2.17548 10.8541 1.99414 11.4426 1.99414 12.0449C1.99414 12.6473 2.17548 13.2357 2.51456 13.7336C2.85364 14.2315 3.33475 14.6158 3.89527 14.8364C4.45579 15.0571 5.06975 15.1039 5.65723 14.9707C6.24471 14.8376 6.77851 14.5307 7.18913 14.0899L14.6391 17.9799C14.5901 18.1863 14.5666 18.3979 14.5691 18.6099C14.5691 19.2033 14.7451 19.7833 15.0747 20.2766C15.4044 20.77 15.8729 21.1545 16.4211 21.3816C16.9693 21.6086 17.5725 21.668 18.1544 21.5523C18.7363 21.4365 19.2709 21.1508 19.6904 20.7313C20.11 20.3117 20.3957 19.7771 20.5115 19.1952C20.6272 18.6133 20.5678 18.0101 20.3408 17.4619C20.1137 16.9137 19.7292 16.4452 19.2358 16.1155C18.7425 15.7859 18.1625 15.6099 17.5691 15.6099V15.5699ZM17.5691 3.99993C17.846 3.99993 18.1167 4.08204 18.3469 4.23588C18.5772 4.38971 18.7566 4.60836 18.8626 4.86418C18.9685 5.11999 18.9962 5.40149 18.9422 5.67306C18.8882 5.94463 18.7549 6.19409 18.5591 6.38988C18.3633 6.58568 18.1138 6.71901 17.8423 6.77303C17.5707 6.82705 17.2892 6.79933 17.0334 6.69336C16.7776 6.5874 16.5589 6.40796 16.4051 6.17773C16.2512 5.9475 16.1691 5.67683 16.1691 5.39993C16.1691 5.02863 16.3166 4.67253 16.5792 4.40998C16.8417 4.14743 17.1978 3.99993 17.5691 3.99993ZM4.99913 13.4099C4.72266 13.4099 4.45239 13.3281 4.22238 13.1747C3.99237 13.0213 3.81293 12.8032 3.70668 12.548C3.60043 12.2927 3.57213 12.0118 3.62534 11.7405C3.67856 11.4692 3.8109 11.2197 4.0057 11.0235C4.20049 10.8273 4.44901 10.6932 4.71992 10.6381C4.99084 10.5829 5.27201 10.6092 5.52799 10.7137C5.78398 10.8181 6.00331 10.996 6.15834 11.2249C6.31337 11.4538 6.39715 11.7235 6.39913 11.9999C6.40045 12.1846 6.36521 12.3677 6.29544 12.5388C6.22568 12.7098 6.12276 12.8653 5.99263 12.9964C5.8625 13.1274 5.70772 13.2314 5.53721 13.3024C5.3667 13.3734 5.18382 13.4099 4.99913 13.4099ZM17.5691 19.9999C17.2922 19.9999 17.0216 19.9178 16.7913 19.764C16.5611 19.6102 16.3817 19.3915 16.2757 19.1357C16.1697 18.8799 16.142 18.5984 16.196 18.3268C16.25 18.0552 16.3834 17.8058 16.5792 17.61C16.775 17.4142 17.0244 17.2809 17.296 17.2268C17.5676 17.1728 17.8491 17.2005 18.1049 17.3065C18.3607 17.4125 18.5794 17.5919 18.7332 17.8221C18.887 18.0524 18.9691 18.323 18.9691 18.5999C18.9691 18.9712 18.8216 19.3273 18.5591 19.5899C18.2965 19.8524 17.9404 19.9999 17.5691 19.9999Z" fill="#313131"/>
</svg>
