<svg width="12" height="11" viewBox="0 0 12 11" fill="none" xmlns="http://www.w3.org/2000/svg">
<path d="M5.74163 9.31794C5.90053 9.22204 6.09947 9.22204 6.25837 9.31794L8.6935 10.7877C9.07216 11.0162 9.53927 10.6767 9.43879 10.246L8.79256 7.4759C8.7504 7.29515 8.81182 7.10592 8.9521 6.98439L11.1043 5.11994C11.4386 4.83034 11.2599 4.28121 10.8192 4.24382L7.98643 4.00349C7.80164 3.98781 7.64071 3.87114 7.56834 3.70039L6.46036 1.08618C6.28807 0.679671 5.71193 0.679671 5.53964 1.08618L4.43166 3.70039C4.35929 3.87114 4.19836 3.98781 4.01357 4.00349L1.18082 4.24382C0.740103 4.28121 0.561398 4.83034 0.895697 5.11994L3.0479 6.98439C3.18818 7.10592 3.2496 7.29515 3.20744 7.4759L2.56121 10.246C2.46073 10.6767 2.92784 11.0162 3.3065 10.7877L5.74163 9.31794Z" fill="black"/>
</svg>
