<svg width="14" height="13" viewBox="0 0 14 13" fill="none" xmlns="http://www.w3.org/2000/svg">
<path d="M6.74163 10.8449C6.90053 10.749 7.09947 10.749 7.25837 10.8449L10.3115 12.6877C10.6902 12.9162 11.1573 12.5767 11.0568 12.146L10.2466 8.6729C10.2044 8.49215 10.2658 8.30292 10.4061 8.18139L13.1043 5.84394C13.4386 5.55434 13.2599 5.00521 12.8192 4.96782L9.26743 4.66649C9.08264 4.65081 8.92171 4.53414 8.84934 4.36339L7.46036 1.08618C7.28807 0.679671 6.71193 0.679671 6.53964 1.08618L5.15066 4.36339C5.07829 4.53414 4.91736 4.65081 4.73257 4.66649L1.18081 4.96782C0.740101 5.00521 0.561398 5.55434 0.895697 5.84394L3.5939 8.18139C3.73418 8.30292 3.7956 8.49215 3.75344 8.6729L2.94321 12.146C2.84273 12.5767 3.30984 12.9162 3.6885 12.6877L6.74163 10.8449Z" fill="#EB5527"/>
</svg>
