<svg width="86" height="67" viewBox="0 0 86 67" fill="none" xmlns="http://www.w3.org/2000/svg">
<g clip-path="url(#clip0_2739_12701)">
<path d="M9.79181 0H56.9841V67H27.8657C24.2059 67 20.5819 66.2759 17.2007 64.869C13.8195 63.4621 10.7474 61.4 8.15978 58.8005C5.57214 56.201 3.51968 53.1149 2.11961 49.7186C0.719546 46.3223 -0.000702622 42.6822 5.14326e-07 39.0063V9.83491C5.14326e-07 7.22653 1.03163 4.72498 2.86795 2.88058C4.70427 1.03618 7.19486 0 9.79181 0V0Z" fill="white"/>
<path fill-rule="evenodd" clip-rule="evenodd" d="M78.8801 0H60.5332V38.7159H63.8632C66.7262 38.7159 69.5611 38.1493 72.2061 37.0485C74.851 35.9478 77.2541 34.3344 79.2781 32.3005C81.3021 30.2666 82.9072 27.8521 84.0019 25.195C85.0965 22.5379 85.6592 19.6901 85.6578 16.8145V6.80754C85.6578 5.00207 84.9438 3.27055 83.6727 1.99388C82.4016 0.717221 80.6777 0 78.8801 0ZM76.7233 16.6058C76.7233 19.2043 74.626 21.3109 72.0389 21.3109C69.4517 21.3109 67.3545 19.2043 67.3545 16.6058C67.3545 14.0073 69.4517 11.9007 72.0389 11.9007C74.626 11.9007 76.7233 14.0073 76.7233 16.6058Z" fill="white"/>
</g>
<defs>
<clipPath id="clip0_2739_12701">
<rect width="85.6582" height="67" fill="white"/>
</clipPath>
</defs>
</svg>
