<svg width="81" height="28" viewBox="0 0 81 28" fill="none" xmlns="http://www.w3.org/2000/svg">
<path d="M8.568 9.296C7.88533 9.296 7.256 9.41333 6.68 9.648C6.104 9.86133 5.60267 10.192 5.176 10.64C4.77067 11.088 4.44 11.6427 4.184 12.304C3.94933 12.944 3.832 13.6907 3.832 14.544C3.832 16.2293 4.26933 17.52 5.144 18.416C6.01867 19.2907 7.16 19.728 8.568 19.728C9.37867 19.728 10.072 19.6213 10.648 19.408C11.224 19.1947 11.7253 18.9387 12.152 18.64C12.4293 18.8107 12.6533 19.0133 12.824 19.248C12.9947 19.4827 13.08 19.7707 13.08 20.112C13.08 20.7733 12.6427 21.328 11.768 21.776C10.9147 22.224 9.784 22.448 8.376 22.448C7.20267 22.448 6.12533 22.288 5.144 21.968C4.184 21.648 3.352 21.1573 2.648 20.496C1.944 19.8347 1.38933 19.0133 0.984 18.032C0.6 17.0293 0.408 15.8667 0.408 14.544C0.408 13.2213 0.610667 12.0587 1.016 11.056C1.44267 10.0533 2.008 9.22133 2.712 8.56C3.43733 7.89867 4.28 7.408 5.24 7.088C6.2 6.74667 7.21333 6.576 8.28 6.576C8.984 6.576 9.61333 6.64 10.168 6.768C10.744 6.896 11.2347 7.07733 11.64 7.312C12.0453 7.52533 12.3547 7.78133 12.568 8.08C12.8027 8.35733 12.92 8.656 12.92 8.976C12.92 9.27467 12.8347 9.552 12.664 9.808C12.5147 10.0427 12.3227 10.224 12.088 10.352C11.64 10.0747 11.1387 9.82933 10.584 9.616C10.0507 9.40267 9.37867 9.296 8.568 9.296ZM22.34 19.856C23.0867 19.856 23.7373 19.7813 24.292 19.632C24.8467 19.4827 25.2413 19.3227 25.476 19.152V15.088L21.988 15.44C21.0067 15.5467 20.2707 15.7707 19.78 16.112C19.2893 16.432 19.044 16.9333 19.044 17.616C19.044 18.32 19.3107 18.8747 19.844 19.28C20.3773 19.664 21.2093 19.856 22.34 19.856ZM22.276 6.576C24.26 6.576 25.8387 7.01333 27.012 7.888C28.1853 8.74133 28.772 10.096 28.772 11.952V19.408C28.772 19.8987 28.6547 20.2827 28.42 20.56C28.2067 20.816 27.908 21.0613 27.524 21.296C26.9693 21.616 26.2547 21.8933 25.38 22.128C24.5053 22.3627 23.492 22.48 22.34 22.48C20.2707 22.48 18.6493 22.0747 17.476 21.264C16.324 20.4533 15.748 19.2587 15.748 17.68C15.748 16.272 16.196 15.1947 17.092 14.448C18.0093 13.7013 19.3213 13.2427 21.028 13.072L25.476 12.624V11.92C25.476 10.9813 25.1667 10.2987 24.548 9.872C23.9507 9.44533 23.108 9.232 22.02 9.232C21.1667 9.232 20.3453 9.34933 19.556 9.584C18.7667 9.81867 18.0627 10.0853 17.444 10.384C17.2307 10.2133 17.0493 10.0107 16.9 9.776C16.7507 9.52 16.676 9.24267 16.676 8.944C16.676 8.58133 16.7613 8.28267 16.932 8.048C17.124 7.81333 17.412 7.61067 17.796 7.44C18.3933 7.14133 19.076 6.928 19.844 6.8C20.612 6.65067 21.4227 6.576 22.276 6.576ZM39.8358 22.448C39.1531 22.448 38.5131 22.3733 37.9158 22.224C37.3184 22.096 36.8064 21.9253 36.3798 21.712V27.728C36.2304 27.792 36.0171 27.8453 35.7398 27.888C35.4838 27.952 35.1958 27.984 34.8758 27.984C34.2571 27.984 33.7984 27.8667 33.4998 27.632C33.2011 27.3973 33.0518 26.992 33.0518 26.416V9.872C33.0518 9.40267 33.1371 9.02933 33.3078 8.752C33.4784 8.45333 33.7984 8.16533 34.2678 7.888C34.8651 7.54667 35.5904 7.248 36.4438 6.992C37.3184 6.71467 38.2998 6.576 39.3878 6.576C40.4971 6.576 41.5318 6.736 42.4918 7.056C43.4518 7.35467 44.2838 7.824 44.9878 8.464C45.6918 9.104 46.2464 9.92533 46.6518 10.928C47.0571 11.9093 47.2598 13.0827 47.2598 14.448C47.2598 15.792 47.0678 16.9653 46.6838 17.968C46.3211 18.9493 45.8091 19.7813 45.1478 20.464C44.5078 21.1253 43.7291 21.6267 42.8118 21.968C41.9158 22.288 40.9238 22.448 39.8358 22.448ZM39.3238 19.728C40.7104 19.728 41.8091 19.312 42.6198 18.48C43.4304 17.6267 43.8358 16.2827 43.8358 14.448C43.8358 13.5093 43.7184 12.7093 43.4838 12.048C43.2491 11.3867 42.9291 10.8533 42.5238 10.448C42.1398 10.0213 41.6704 9.72267 41.1158 9.552C40.5824 9.36 40.0064 9.264 39.3878 9.264C38.7051 9.264 38.1184 9.34933 37.6278 9.52C37.1584 9.66933 36.7424 9.85067 36.3798 10.064V18.864C36.7424 19.12 37.1691 19.3333 37.6598 19.504C38.1504 19.6533 38.7051 19.728 39.3238 19.728ZM54.3523 21.936C54.2029 22 53.9896 22.0533 53.7123 22.096C53.4563 22.16 53.1576 22.192 52.8163 22.192C52.1976 22.192 51.7389 22.0747 51.4403 21.84C51.1416 21.6053 50.9923 21.2107 50.9923 20.656V7.12C51.1629 7.07733 51.3763 7.024 51.6323 6.96C51.9096 6.896 52.2189 6.864 52.5603 6.864C53.1789 6.864 53.6269 6.98133 53.9043 7.216C54.2029 7.45067 54.3523 7.856 54.3523 8.432V21.936ZM50.6403 2.416C50.6403 1.86133 50.8323 1.40267 51.2163 1.04C51.6003 0.655999 52.0909 0.463999 52.6883 0.463999C53.2856 0.463999 53.7656 0.655999 54.1283 1.04C54.4909 1.40267 54.6723 1.86133 54.6723 2.416C54.6723 2.97067 54.4909 3.44 54.1283 3.824C53.7656 4.18667 53.2856 4.368 52.6883 4.368C52.0909 4.368 51.6003 4.18667 51.2163 3.824C50.8323 3.44 50.6403 2.97067 50.6403 2.416ZM69.0388 12.304C69.0388 11.2587 68.7401 10.4907 68.1428 10C67.5668 9.50933 66.7774 9.264 65.7748 9.264C65.0281 9.264 64.3561 9.36 63.7588 9.552C63.1828 9.744 62.6814 9.95733 62.2548 10.192V21.936C62.1054 22 61.8921 22.0533 61.6148 22.096C61.3588 22.16 61.0708 22.192 60.7508 22.192C60.1321 22.192 59.6734 22.0747 59.3748 21.84C59.0761 21.6053 58.9268 21.2107 58.9268 20.656V10.096C58.9268 9.60533 59.0228 9.21067 59.2148 8.912C59.4068 8.61333 59.7268 8.31467 60.1748 8.016C60.7721 7.65333 61.5508 7.32267 62.5108 7.024C63.4708 6.72533 64.5588 6.576 65.7748 6.576C67.8441 6.576 69.4654 7.04533 70.6388 7.984C71.8121 8.90133 72.3988 10.2987 72.3988 12.176V21.936C72.2494 22 72.0361 22.0533 71.7588 22.096C71.4814 22.16 71.1828 22.192 70.8628 22.192C70.2441 22.192 69.7854 22.0747 69.4868 21.84C69.1881 21.6053 69.0388 21.2107 69.0388 20.656V12.304ZM80.4818 3.6C80.4818 4.19733 80.4711 4.99733 80.4498 6C80.4284 6.98133 80.3964 8.03733 80.3538 9.168C80.3324 10.2987 80.2898 11.44 80.2258 12.592C80.1831 13.7227 80.1191 14.736 80.0338 15.632C79.8844 15.7387 79.6818 15.824 79.4258 15.888C79.1911 15.952 78.9564 15.984 78.7218 15.984C78.3164 15.984 77.9858 15.92 77.7298 15.792C77.4951 15.6427 77.3564 15.3867 77.3138 15.024C77.2498 14.448 77.1858 13.6267 77.1218 12.56C77.0791 11.4933 77.0364 10.3627 76.9938 9.168C76.9724 7.952 76.9511 6.74667 76.9298 5.552C76.9084 4.336 76.8978 3.29067 76.8978 2.416C77.4738 2.07467 78.1031 1.904 78.7858 1.904C79.3191 1.904 79.7351 2.04267 80.0338 2.32C80.3324 2.59733 80.4818 3.024 80.4818 3.6ZM76.5778 20.272C76.5778 19.6533 76.7698 19.152 77.1538 18.768C77.5378 18.3627 78.0604 18.16 78.7218 18.16C79.4044 18.16 79.9271 18.3627 80.2898 18.768C80.6738 19.152 80.8658 19.6533 80.8658 20.272C80.8658 20.8907 80.6738 21.4027 80.2898 21.808C79.9271 22.2133 79.4044 22.416 78.7218 22.416C78.0604 22.416 77.5378 22.2133 77.1538 21.808C76.7698 21.4027 76.5778 20.8907 76.5778 20.272Z" fill="#EB5527"/>
</svg>
